<?xml version="1.0" standalone="no"?>
<!DOCTYPE svg PUBLIC "-//W3C//DTD SVG 20010904//EN"
 "http://www.w3.org/TR/2001/REC-SVG-20010904/DTD/svg10.dtd">
<svg version="1.0" xmlns="http://www.w3.org/2000/svg"
 width="500.000000pt" height="500.000000pt" viewBox="0 0 500.000000 500.000000"
 preserveAspectRatio="xMidYMid meet">

<g transform="translate(0.000000,500.000000) scale(0.100000,-0.100000)"
fill="#000000" stroke="none">
<path d="M1818 3218 c-554 -139 -638 -163 -638 -179 0 -13 11 -21 38 -28 281
-74 573 -142 597 -138 17 3 82 16 145 30 177 39 327 51 550 43 107 -3 215 -10
240 -15 32 -7 14 -8 -65 -4 -148 7 -392 -12 -545 -43 -125 -25 -173 -38 -282
-76 l-58 -21 0 -86 c0 -49 5 -92 11 -98 8 -8 35 -4 96 13 198 54 319 68 593
68 273 0 387 -13 593 -68 59 -15 90 -19 97 -12 6 6 10 62 10 136 l0 125 113
29 c61 16 120 31 130 34 16 4 17 -12 17 -232 0 -151 -4 -236 -10 -236 -5 0
-10 -25 -10 -55 0 -49 2 -55 24 -61 14 -3 34 -3 45 1 18 5 21 14 21 61 0 30
-5 54 -10 54 -7 0 -9 83 -8 242 l3 242 125 31 c69 17 137 35 153 38 17 5 27
14 27 26 0 16 -81 39 -645 180 -355 88 -662 161 -682 160 -21 0 -325 -73 -675
-161z"/>
<path d="M1800 2255 c-128 -40 -202 -189 -156 -316 48 -135 213 -202 341 -138
77 38 134 124 135 202 l0 37 -120 0 -120 0 0 -35 0 -34 81 -3 80 -3 -23 -35
c-27 -40 -98 -80 -143 -80 -41 0 -114 38 -139 72 -27 38 -34 134 -12 176 51
99 183 121 267 45 37 -33 41 -35 69 -23 17 7 30 17 30 23 0 25 -91 96 -141
112 -63 18 -90 18 -149 0z"/>
<path d="M2210 2020 l0 -240 40 0 40 0 0 101 0 100 37 -3 c34 -3 40 -9 97
-100 l61 -98 86 0 85 0 15 48 15 47 100 3 100 3 18 -51 c17 -48 19 -50 57 -50
21 0 39 3 39 8 0 4 -37 111 -83 237 l-83 230 -45 3 -45 3 -74 -203 c-40 -112
-79 -219 -87 -238 l-14 -35 -60 94 c-33 51 -61 97 -62 102 -1 5 9 15 23 22 36
18 70 74 70 115 0 47 -36 108 -76 127 -23 11 -64 15 -143 15 l-111 0 0 -240z
m228 150 c28 -26 29 -73 2 -100 -16 -16 -33 -20 -85 -20 l-65 0 0 70 0 70 63
0 c50 0 68 -4 85 -20z m391 -113 c17 -49 31 -93 31 -98 0 -5 -33 -9 -74 -9
l-74 0 36 110 c20 60 39 104 43 97 4 -6 21 -52 38 -100z"/>
<path d="M3016 2233 c9 -16 46 -71 81 -123 l63 -95 0 -117 0 -118 40 0 40 0 0
113 0 112 85 128 85 127 -45 0 -46 0 -58 -90 -58 -90 -57 90 -58 90 -45 0 -45
0 18 -27z"/>
<path d="M1208 1517 c-63 -21 -123 -70 -149 -123 -31 -63 -33 -161 -5 -217 78
-157 293 -189 406 -61 16 19 30 38 30 42 0 5 -15 15 -33 24 -31 15 -33 15 -51
-9 -27 -37 -101 -66 -147 -60 -54 7 -106 43 -129 88 -87 169 120 329 261 202
37 -33 41 -35 69 -23 17 7 30 16 30 21 0 18 -65 81 -103 100 -49 25 -130 33
-179 16z"/>
<path d="M1740 1521 c-140 -46 -214 -174 -175 -306 53 -185 288 -240 417 -97
34 37 68 119 68 162 0 9 -7 40 -16 69 -18 61 -70 123 -127 153 -44 22 -128 32
-167 19z m140 -94 c50 -26 90 -90 90 -144 0 -111 -118 -198 -222 -164 -40 13
-92 64 -107 104 -40 104 46 227 159 227 20 0 56 -10 80 -23z"/>
<path d="M3281 1519 c-147 -45 -221 -212 -152 -347 44 -86 124 -134 222 -134
127 0 223 87 243 220 l6 42 -125 0 -125 0 0 -35 0 -34 81 -3 80 -3 -23 -34
c-33 -49 -66 -70 -120 -77 -65 -9 -129 23 -163 80 -98 168 112 339 256 209 37
-33 41 -35 69 -23 17 7 30 18 30 24 0 17 -69 81 -109 101 -41 21 -125 28 -170
14z"/>
<path d="M2130 1280 l0 -240 125 0 125 0 0 35 0 35 -85 0 -85 0 0 205 0 205
-40 0 -40 0 0 -240z"/>
<path d="M2440 1280 l0 -240 125 0 125 0 0 35 0 35 -85 0 -85 0 0 205 0 205
-40 0 -40 0 0 -240z"/>
<path d="M2750 1280 l0 -240 135 0 135 0 0 35 0 35 -95 0 -95 0 0 65 0 64 83
3 82 3 0 35 0 35 -82 3 -83 3 0 64 0 65 95 0 95 0 0 35 0 35 -135 0 -135 0 0
-240z"/>
<path d="M3690 1280 l0 -240 135 0 135 0 0 35 0 35 -95 0 -95 0 0 65 0 64 83
3 82 3 0 35 0 35 -82 3 -83 3 0 64 0 65 95 0 95 0 0 35 0 35 -135 0 -135 0 0
-240z"/>
</g>
</svg>
